<?xml version="1.0" encoding="UTF-8" standalone="no"?>
<svg
   id="e2iDIGxmKEP1"
   viewBox="0 0 32 32"
   shape-rendering="geometricPrecision"
   text-rendering="geometricPrecision"
   version="1.1"
   sodipodi:docname="3.svg"
   inkscape:export-filename="3.png"
   inkscape:export-xdpi="200"
   inkscape:export-ydpi="200"
   inkscape:version="1.4 (86a8ad7, 2024-10-11)"
   xmlns:inkscape="http://www.inkscape.org/namespaces/inkscape"
   xmlns:sodipodi="http://sodipodi.sourceforge.net/DTD/sodipodi-0.dtd"
   xmlns="http://www.w3.org/2000/svg"
   xmlns:svg="http://www.w3.org/2000/svg">
  <defs
     id="defs11" />
  <sodipodi:namedview
     id="namedview11"
     pagecolor="#505050"
     bordercolor="#eeeeee"
     borderopacity="1"
     inkscape:showpageshadow="0"
     inkscape:pageopacity="0"
     inkscape:pagecheckerboard="0"
     inkscape:deskcolor="#505050"
     inkscape:zoom="8"
     inkscape:cx="27.3125"
     inkscape:cy="13"
     inkscape:window-width="1920"
     inkscape:window-height="1027"
     inkscape:window-x="-8"
     inkscape:window-y="-8"
     inkscape:window-maximized="1"
     inkscape:current-layer="g11" />
  <g
     transform="translate(0-.183165)"
     mask="url(#e2iDIGxmKEP20)"
     id="g11"
     style="fill:#f9f9f9">
    <rect
       width="24.996208"
       height="25.103378"
       rx="1"
       ry="1"
       transform="translate(3.356286,3.315456)"
       fill="#01040b"
       stroke-width="0"
       id="rect1"
       x="0"
       y="0"
       style="display:inline;fill:#000000" />
    <path
       d="M10.600985,8.01102L7.82206,0h8v10L10.600985,8.01102ZM15.57206,9.69v-9.38h-7.5l2.778925,7.39102L15.57206,9.69Z"
       transform="matrix(.419536 0.300277-.300277 0.419536-.27886 20.320069)"
       fill="#d2dbed"
       stroke-width="0"
       id="path1"
       style="fill:#f9f9f9" />
    <path
       d="M7.82206,10v-10h8v10h-8Zm7.75-.31v-9.38h-7.5v9.38h7.5Z"
       transform="matrix(-.445032 0.261004-.261004-.445032 19.481065 27.175259)"
       fill="#d2dbed"
       stroke-width="0"
       id="path2"
       style="fill:#f9f9f9" />
    <path
       d="M7.82206,10L7.726155,2.566719l8.043129,1.650842L15.82206,10h-8Zm7.75-.31l-.094357-5.231951-7.501548-1.58133L8.07206,9.69h7.5Z"
       transform="matrix(-.36634 0.394779-.394779-.36634 33.191923 25.058666)"
       fill="#d2dbed"
       stroke-width="0"
       id="path3"
       style="fill:#f9f9f9" />
    <path
       d="M7.82206,10v-10h8v10h-8Zm7.75-.31v-9.38h-7.5v9.38h7.5Z"
       transform="matrix(-.262291-.058989 0.058989-.262291 18.844956 25.878788)"
       fill="#d2dbed"
       stroke-width="0"
       id="path4"
       style="fill:#f9f9f9" />
    <path
       d="M7.82206,10v-10h8v10h-8Zm7.75-.31v-9.38h-7.5v9.38h7.5Z"
       transform="matrix(-.262291-.058989 0.058989-.262291 10.509035 21.24176)"
       fill="#d2dbed"
       stroke-width="0"
       id="path5"
       style="fill:#f9f9f9" />
    <path
       d="M7.82206,10v-10h8v10h-8Zm7.75-.31v-9.38h-7.5v9.38h7.5Z"
       transform="matrix(-.093092 0.25221-.25221-.093092 26.149945 18.142878)"
       fill="#d2dbed"
       stroke-width="0"
       id="path6"
       style="fill:#f9f9f9" />
    <path
       d="M7.82206,10v-10h8v10h-8Zm7.75-.31v-9.38h-7.5v9.38h7.5Z"
       transform="matrix(-.122948 0.101423-.101423-.122948 16.349483 19.054336)"
       fill="#d2dbed"
       stroke-width="0"
       id="path7"
       style="fill:#f9f9f9" />
    <path
       d="m 16.848165,16.378869 -0.53899,0.9745 -0.7796,-0.431192 0.53899,-0.9745 z m -0.771947,-0.387508 -0.505572,0.914081 0.730875,0.404243 0.505572,-0.914081 z"
       fill="#d2dbed"
       stroke-width="0"
       id="path8"
       style="fill:#f9f9f9" />
    <path
       d="M7.82206,10v-10h8v10h-8Zm7.75-.31v-9.38h-7.5v9.38h7.5Z"
       transform="matrix(-.122948 0.101423-.101423-.122948 7.615711 13.376494)"
       fill="#d2dbed"
       stroke-width="0"
       id="path9"
       style="fill:#f9f9f9" />
    <path
       d="M7.82206,10v-10h8v10h-8Zm7.75-.31v-9.38h-7.5v9.38h7.5Z"
       transform="matrix(-.130104-.092065 0.092065-.130104 27.964901 17.738918)"
       fill="#d2dbed"
       stroke-width="0"
       id="path10"
       style="fill:#f9f9f9" />
    <text
       dx="0"
       dy="0"
       font-family="&quot;e2iDIGxmKEP1:::Roboto&quot;"
       font-size="38px"
       font-weight="400"
       fill="#d1fffd"
       stroke-width="0"
       id="text10"
       style="font-style:normal;font-variant:normal;font-weight:normal;font-stretch:normal;font-family:'Baskerville Old Face';-inkscape-font-specification:'Baskerville Old Face';display:inline;fill:#f9f9f9"
       x="6.5"
       y="28.592079"><tspan
         y="28.592079"
         font-weight="400"
         stroke-width="0"
         id="tspan10"
         style="font-style:normal;font-variant:normal;font-weight:normal;font-stretch:normal;font-family:'Baskerville Old Face';-inkscape-font-specification:'Baskerville Old Face';fill:#f9f9f9"><![CDATA[n]]></tspan></text>
    <path
       d="M0,26c-5.515433-5.515433-.799823-25.608805.356286-25.684544s20.128281-5.830889,25.643714-.315456s0,26,0,26-20.484567,5.515433-26,0Zm22.75-.8125c2.437501,0,2.4375,0,2.4375-2.4375v-19.5c.000001-2.4375.000001-2.4375-2.4375-2.4375L7.021874,1.430699c-6.842344,0-6.209374,0-6.209374,9.739136v11.580165c0,2.396652,0,2.4375,2.4375,2.4375h19.5Z"
       transform="translate(3 3)"
       fill="#d1fffd"
       stroke-width="0"
       id="path11"
       style="fill:#f9f9f9" />
  </g>
  <style
     id="style11"><![CDATA[
@font-face {font-family: 'Helvetica, sans-serif';font-style: normal;font-weight: 400;}
]]></style>
</svg>
