<?xml version="1.0" encoding="UTF-8" standalone="no"?>
<svg
   id="eWqa6bQUzxt1"
   viewBox="0 0 800 400"
   shape-rendering="geometricPrecision"
   text-rendering="geometricPrecision"
   version="1.1"
   sodipodi:docname="banner.svg"
   inkscape:version="1.4 (86a8ad7, 2024-10-11)"
   xmlns:inkscape="http://www.inkscape.org/namespaces/inkscape"
   xmlns:sodipodi="http://sodipodi.sourceforge.net/DTD/sodipodi-0.dtd"
   xmlns="http://www.w3.org/2000/svg"
   xmlns:svg="http://www.w3.org/2000/svg">
  <defs
     id="defs10" />
  <sodipodi:namedview
     id="namedview10"
     pagecolor="#505050"
     bordercolor="#eeeeee"
     borderopacity="1"
     inkscape:showpageshadow="0"
     inkscape:pageopacity="0"
     inkscape:pagecheckerboard="0"
     inkscape:deskcolor="#505050"
     inkscape:zoom="0.64877047"
     inkscape:cx="268.97032"
     inkscape:cy="351.434"
     inkscape:window-width="1920"
     inkscape:window-height="1027"
     inkscape:window-x="-8"
     inkscape:window-y="-8"
     inkscape:window-maximized="1"
     inkscape:current-layer="eWqa6bQUzxt1"
     inkscape:export-bgcolor="#00000000" />
  <text
     dx="0"
     dy="0"
     font-family="&quot;eWqa6bQUzxt1:::Lato&quot;"
     font-size="120"
     font-weight="800"
     fill="#d1fffd"
     stroke-width="0"
     id="text2"
     style="font-style:normal;font-variant:normal;font-weight:normal;font-stretch:normal;font-size:182.392px;font-family:'Baskerville Old Face';-inkscape-font-specification:'Baskerville Old Face';fill:#ffffff"
     x="135.49158"
     y="263.29532"
     transform="scale(1.000551,0.99944926)"><tspan
       y="342.59613"
       font-weight="800"
       stroke-width="0"
       id="tspan1"
       style="font-style:normal;font-variant:normal;font-weight:normal;font-stretch:normal;font-size:182.392px;font-family:'Baskerville Old Face';-inkscape-font-specification:'Baskerville Old Face';fill:#ffffff"><![CDATA[notki]]></tspan></text>
  <path
     d="m 679.83275,392.8304 c -2.52042,0.74779 -5.1705,-0.68694 -5.91912,-3.20459 L 643.01211,285.70307 c -0.74863,-2.51765 0.6877,-5.1648 3.20812,-5.9126 l 78.38668,-23.25704 c 2.52041,-0.7478 5.17049,0.68694 5.91912,3.20458 l 30.90151,103.92274 c 0.74862,2.51764 -0.68769,5.16481 -3.20811,5.9126 z m 70.56145,-28.59729 c 2.15182,-0.63845 3.36495,-2.94271 2.70958,-5.14672 l -27.05205,-90.97688 c -0.65536,-2.20402 -2.93105,-3.47318 -5.08288,-2.83473 l -66.9234,19.85593 c -2.15183,0.63844 -3.36496,2.9427 -2.70959,5.14673 l 27.05205,90.97688 c 0.65536,2.204 2.93105,3.47315 5.08287,2.83472 z"
     fill="#d1fffd"
     stroke-width="0"
     id="path2"
     style="fill:#ffffff" />
  <path
     d="m 183.84204,155.52354 c -2.52041,0.7478 -5.17049,-0.68694 -5.91911,-3.20458 L 147.02141,48.396209 c -0.74862,-2.517643 0.68771,-5.164803 3.20812,-5.912602 l 78.38668,-23.257039 c 2.52042,-0.7478 5.1705,0.686941 5.91912,3.204583 L 265.43684,126.3539 c 0.74862,2.51764 -0.6877,5.16481 -3.20812,5.91261 z m 70.56145,-28.59729 c 2.15184,-0.63844 3.36496,-2.9427 2.7096,-5.14671 L 230.06104,30.802646 c -0.65537,-2.204012 -2.93105,-3.473163 -5.08288,-2.834723 l -66.92341,19.85593 c -2.15183,0.63844 -3.36496,2.942701 -2.70959,5.14672 l 27.05205,90.976877 c 0.65537,2.20402 2.93105,3.47317 5.08288,2.83473 z"
     fill="#d1fffd"
     stroke-width="0"
     id="path3"
     style="fill:#ffffff" />
  <path
     d="m 342.41868,159.31528 c -1.98828,-1.71849 -2.20544,-4.72163 -0.48505,-6.70771 l 71.01382,-81.980989 c 1.72039,-1.986079 4.72685,-2.203001 6.71512,-0.484507 l 61.83649,53.446296 c 1.98826,1.7185 2.20542,4.72163 0.48504,6.70772 l -71.01384,81.98098 c -1.72038,1.98607 -4.72684,2.20301 -6.7151,0.48451 z m 62.12621,43.98405 c 1.69749,1.46718 4.29451,1.2471 5.80059,-0.49157 l 62.16749,-71.76845 c 1.50607,-1.73866 1.35089,-4.33752 -0.34662,-5.80469 l -52.7935,-45.630319 c -1.69751,-1.467179 -4.29452,-1.247097 -5.8006,0.491576 l -62.1675,71.768443 c -1.50607,1.73868 -1.35088,4.33753 0.34662,5.80471 z"
     fill="#d1fffd"
     stroke-width="0"
     id="path4"
     style="fill:#ffffff" />
  <path
     d="m 523.89778,170.01414 c -1.15228,-2.3607 -0.17056,-5.2075 2.19274,-6.35852 l 97.5518,-47.51136 c 2.3633,-1.15101 5.21324,-0.17037 6.36552,2.19032 l 35.83678,73.41925 c 1.15229,2.3607 0.17057,5.2075 -2.19273,6.35852 l -97.55179,47.51136 c -2.3633,1.15101 -5.21324,0.17037 -6.36553,-2.19032 z m 39.82558,64.83191 c 0.98377,2.01547 3.45844,2.83249 5.52735,1.82485 l 85.39958,-41.59277 c 2.06888,-1.00763 2.94856,-3.45834 1.96478,-5.4738 l -30.59601,-62.68242 c -0.98377,-2.01546 -3.45846,-2.83248 -5.52735,-1.82485 l -85.39958,41.59276 c -2.0689,1.00764 -2.94856,3.45835 -1.96479,5.47381 z"
     fill="#d1fffd"
     stroke-width="0"
     id="path5"
     style="fill:#ffffff" />
  <g
     transform="matrix(0.79344527,0,0,0.79257158,-74.582313,-6.4957895)"
     opacity="0.5"
     id="g8"
     style="fill:#ffffff">
    <path
       d="m 645.49968,341.08353 c -0.75731,-1.55323 -0.11204,-3.42631 1.44126,-4.18366 l 64.11678,-31.26168 c 1.5533,-0.75735 3.42642,-0.11217 4.18373,1.44105 l 23.5529,48.30629 c 0.75731,1.55322 0.11203,3.42631 -1.44127,4.18366 l -64.11678,31.26168 c -1.5533,0.75735 -3.42641,0.11216 -4.18372,-1.44106 z m 26.17464,42.65613 c 0.64656,1.32608 2.27304,1.86361 3.63285,1.2006 l 56.12962,-27.36735 c 1.3598,-0.663 1.938,-2.27547 1.29143,-3.60155 l -20.10851,-41.24197 c -0.64656,-1.32608 -2.27304,-1.86361 -3.63285,-1.20061 l -56.12962,27.36735 c -1.3598,0.66301 -1.938,2.27548 -1.29144,3.60156 z"
       fill="#d1fffd"
       stroke-width="0"
       id="path6"
       style="fill:#ffffff" />
    <path
       d="m 506.7358,185.52523 c -1.72801,0 -3.12884,-1.4009 -3.12884,-3.12899 v -71.33202 c 0,-1.72809 1.40083,-3.12899 3.12884,-3.12899 h 53.74232 c 1.72801,0 3.12884,1.4009 3.12884,3.12899 v 71.33202 c 0,1.72809 -1.40083,3.12899 -3.12884,3.12899 z m 49.81268,-4.83277 c 1.4753,0 2.67128,-1.22639 2.67128,-2.73921 v -62.44604 c 0,-1.51283 -1.19598,-2.73921 -2.67128,-2.73921 h -45.88304 c -1.47531,0 -2.67128,1.22638 -2.67128,2.73921 v 62.44604 c 0,1.51282 1.19597,2.73921 2.67128,2.73921 z"
       transform="rotate(-16.542651,626.88679,1527.4615)"
       fill="#d1fffd"
       stroke-width="0"
       id="path7"
       style="fill:#ffffff" />
    <path
       d="m 506.7358,185.52523 c -1.72801,0 -3.12884,-1.4009 -3.12884,-3.12899 v -71.33202 c 0,-1.72809 1.40083,-3.12899 3.12884,-3.12899 h 53.74232 c 1.72801,0 3.12884,1.4009 3.12884,3.12899 v 71.33202 c 0,1.72809 -1.40083,3.12899 -3.12884,3.12899 z m 49.81268,-4.83277 c 1.4753,0 2.67128,-1.22639 2.67128,-2.73921 v -62.44604 c 0,-1.51283 -1.19598,-2.73921 -2.67128,-2.73921 h -45.88304 c -1.47531,0 -2.67128,1.22638 -2.67128,2.73921 v 62.44604 c 0,1.51282 1.19597,2.73921 2.67128,2.73921 z"
       transform="rotate(40.868629,324.34417,75.451464)"
       fill="#d1fffd"
       stroke-width="0"
       id="path8"
       style="fill:#ffffff" />
  </g>
  <path
     d="m 749.14747,128.86929 c 0.97976,-0.95808 2.55158,-0.94133 3.51076,0.0374 l 39.59272,40.39996 c 0.95917,0.97874 0.94248,2.54883 -0.0373,3.50691 l -30.47134,29.79673 c -0.97976,0.95807 -2.55157,0.94133 -3.51076,-0.0374 L 718.63884,162.1729 c -0.95917,-0.97873 -0.94249,-2.54882 0.0373,-3.50689 z m -25.56085,30.3551 c -0.83648,0.81797 -0.83388,2.17563 0.006,3.03245 l 34.66057,35.36727 c 0.83969,0.85681 2.1985,0.88831 3.03498,0.0703 l 26.01522,-25.43926 c 0.83648,-0.81796 0.83388,-2.17564 -0.006,-3.03245 l -34.66057,-35.36728 c -0.83969,-0.85681 -2.1985,-0.8883 -3.03498,-0.0703 z"
     opacity="0.25"
     fill="#d1fffd"
     stroke-width="0"
     id="path9"
     style="fill:#ffffff" />
  <path
     d="m 90.574294,42.548053 c 0.979763,-0.958076 2.551585,-0.94133 3.510757,0.03741 L 133.67776,82.98543 c 0.95917,0.978731 0.94249,2.548823 -0.0373,3.5069 l -30.47135,29.79672 c -0.97976,0.95808 -2.55159,0.94133 -3.510765,-0.0374 L 60.065673,75.851673 c -0.959172,-0.978732 -0.942487,-2.548823 0.03729,-3.506899 z M 65.013455,72.903148 c -0.836482,0.817965 -0.833888,2.175641 0.0056,3.03245 l 34.660563,35.367262 c 0.839692,0.85682 2.198512,0.88829 3.034982,0.0703 l 26.01519,-25.439203 c 0.83649,-0.817967 0.83389,-2.175633 -0.006,-3.032451 L 94.063628,47.534208 c -0.839687,-0.85681 -2.198494,-0.888307 -3.034976,-0.07038 z"
     opacity="0.25"
     fill="#d1fffd"
     stroke-width="0"
     id="path9-0"
     style="fill:#ffffff" />
  <path
     d="m 575.3248,48.273009 c -0.25299,-1.346054 0.63436,-2.642125 1.98196,-2.894856 l 55.62615,-10.432199 c 1.3476,-0.252731 2.64515,0.633581 2.89814,1.979635 l 7.8684,41.863201 c 0.253,1.346054 -0.63435,2.642125 -1.98196,2.894856 l -55.62614,10.432199 c -1.34761,0.252731 -2.64515,-0.633581 -2.89815,-1.979635 z m 11.06176,38.095375 c 0.216,1.149206 1.34746,1.901467 2.52719,1.680218 l 48.69669,-9.132638 c 1.17973,-0.221248 1.96099,-1.332222 1.74499,-2.481429 l -6.71772,-35.741126 c -0.21601,-1.149205 -1.34747,-1.901466 -2.5272,-1.680218 l -48.69668,9.132639 c -1.17973,0.221248 -1.96099,1.332223 -1.74499,2.481429 z"
     opacity="0.25"
     fill="#d1fffd"
     stroke-width="0"
     id="path10"
     style="fill:#ffffff" />
  <style
     id="style10"><![CDATA[
@font-face {font-family: 'Verdana, sans-serif';font-style: normal;font-weight: 700;}
]]></style>
</svg>
