<svg id="eWqa6bQUzxt1" xmlns="http://www.w3.org/2000/svg" xmlns:xlink="http://www.w3.org/1999/xlink" viewBox="0 0 800 400" shape-rendering="geometricPrecision" text-rendering="geometricPrecision" ><path d="M0,400L0,0h800v400h-800Zm776.96251-15.10687c5.70385,0,10.32774-4.21992,10.32774-9.42545v-334.60347c0-5.20553-4.62389-9.42545-10.32774-9.42545h-753.92502c-5.70385,0-10.32774,4.21992-10.32774,9.42545v334.60348c0,5.20553,4.62389,9.42545,10.32774,9.42545l753.92502-.00001ZM772.1626,24.58921c5.22359,0,9.45814-4.23455,9.45814-9.45814s-4.23455-9.45814-9.45814-9.45814-9.45814,4.23455-9.45814,9.45814s4.23455,9.45814,9.45814,9.45814Zm-26.28437,0c5.22359,0,9.45814-4.23455,9.45814-9.45814s-4.23455-9.45814-9.45814-9.45814-9.45814,4.23455-9.45814,9.45814s4.23455,9.45814,9.45814,9.45814Zm-26.7803,0c5.22359,0,9.45814-4.23455,9.45814-9.45814s-4.23455-9.45814-9.45814-9.45814-9.45814,4.23455-9.45814,9.45814s4.23455,9.45814,9.45814,9.45814Z" fill="#d1fffd" stroke-width="0"/><text dx="0" dy="0" font-family="&quot;eWqa6bQUzxt1:::Lato&quot;" font-size="120" font-weight="800" transform="translate(57.546125 259.22025)" fill="#d1fffd" stroke-width="0"><tspan y="100" font-weight="800" stroke-width="0"><![CDATA[
notki
]]></tspan><tspan x="0" y="340" font-weight="800" stroke-width="0"><![CDATA[
 
]]></tspan></text><path d="M509.60696,256.7179c-3.31371,0-6-2.68629-6-6v-136.78267c0-3.31371,2.68629-6,6-6h103.0586c3.31371,0,6,2.68629,6,6v136.78267c0,3.31371-2.68629,6-6,6h-103.0586Zm95.52295-9.26708c2.82911,0,5.12256-2.35165,5.12256-5.25257v-119.74338c0-2.90091-2.29345-5.25257-5.12256-5.25257h-87.98731c-2.82911,0-5.12256,2.35165-5.12256,5.25257v119.74338c0,2.90091,2.29345,5.25257,5.12256,5.25257h87.98731Z" transform="matrix(.958608-.284729 0.284729 0.958608 138.732667 352.67522)" fill="#d1fffd" stroke-width="0"/><path d="M509.60696,256.7179c-3.31371,0-6-2.68629-6-6v-136.78267c0-3.31371,2.68629-6,6-6h103.0586c3.31371,0,6,2.68629,6,6v136.78267c0,3.31371-2.68629,6-6,6h-103.0586Zm95.52295-9.26708c2.82911,0,5.12256-2.35165,5.12256-5.25257v-119.74338c0-2.90091-2.29345-5.25257-5.12256-5.25257h-87.98731c-2.82911,0-5.12256,2.35165-5.12256,5.25257v119.74338c0,2.90091,2.29345,5.25257,5.12256,5.25257h87.98731Z" transform="matrix(.958608-.284729 0.284729 0.958608-477.129228 51.720056)" fill="#d1fffd" stroke-width="0"/><path d="M509.60696,256.7179c-3.31371,0-6-2.68629-6-6v-136.78267c0-3.31371,2.68629-6,6-6h103.0586c3.31371,0,6,2.68629,6,6v136.78267c0,3.31371-2.68629,6-6,6h-103.0586Zm95.52295-9.26708c2.82911,0,5.12256-2.35165,5.12256-5.25257v-119.74338c0-2.90091-2.29345-5.25257-5.12256-5.25257h-87.98731c-2.82911,0-5.12256,2.35165-5.12256,5.25257v119.74338c0,2.90091,2.29345,5.25257,5.12256,5.25257h87.98731Z" transform="matrix(.756212 0.654327-.654327 0.756212 60.778467-367.003883)" fill="#d1fffd" stroke-width="0"/><path d="M509.60696,256.7179c-3.31371,0-6-2.68629-6-6v-136.78267c0-3.31371,2.68629-6,6-6h103.0586c3.31371,0,6,2.68629,6,6v136.78267c0,3.31371-2.68629,6-6,6h-103.0586Zm95.52295-9.26708c2.82911,0,5.12256-2.35165,5.12256-5.25257v-119.74338c0-2.90091-2.29345-5.25257-5.12256-5.25257h-87.98731c-2.82911,0-5.12256,2.35165-5.12256,5.25257v119.74338c0,2.90091,2.29345,5.25257,5.12256,5.25257h87.98731Z" transform="matrix(.438256 0.89885-.89885 0.438256 520.472902-399.57336)" fill="#d1fffd" stroke-width="0"/><g transform="translate(-241.219923-51.710322)" opacity="0.5"><path d="M506.7358,185.52523c-1.728011,0-3.12884-1.400897-3.12884-3.128993v-71.332014c0-1.728096,1.400829-3.128993,3.12884-3.128993h53.74232c1.728011,0,3.12884,1.400897,3.12884,3.128993v71.332014c0,1.728096-1.400829,3.128993-3.12884,3.128993h-53.74232Zm49.812678-4.832772c1.475306,0,2.671279-1.226383,2.671279-2.73921v-62.446042c0-1.512821-1.195973-2.739209-2.671279-2.739209h-45.883042c-1.475305,0-2.671279,1.226383-2.671279,2.739209v62.446042c0,1.512822,1.195974,2.73921,2.671279,2.73921h45.883042Z" transform="matrix(.438256 0.89885-.89885 0.438256 588.637649-209.575883)" fill="#d1fffd" stroke-width="0"/><path d="M506.7358,185.52523c-1.728011,0-3.12884-1.400897-3.12884-3.128993v-71.332014c0-1.728096,1.400829-3.128993,3.12884-3.128993h53.74232c1.728011,0,3.12884,1.400897,3.12884,3.128993v71.332014c0,1.728096-1.400829,3.128993-3.12884,3.128993h-53.74232Zm49.812678-4.832772c1.475306,0,2.671279-1.226383,2.671279-2.73921v-62.446042c0-1.512821-1.195973-2.739209-2.671279-2.739209h-45.883042c-1.475305,0-2.671279,1.226383-2.671279,2.739209v62.446042c0,1.512822,1.195974,2.73921,2.671279,2.73921h45.883042Z" transform="matrix(.958608-.284729 0.284729 0.958608-408.96448 241.717533)" fill="#d1fffd" stroke-width="0"/><path d="M506.7358,185.52523c-1.728011,0-3.12884-1.400897-3.12884-3.128993v-71.332014c0-1.728096,1.400829-3.128993,3.12884-3.128993h53.74232c1.728011,0,3.12884,1.400897,3.12884,3.128993v71.332014c0,1.728096-1.400829,3.128993-3.12884,3.128993h-53.74232Zm49.812678-4.832772c1.475306,0,2.671279-1.226383,2.671279-2.73921v-62.446042c0-1.512821-1.195973-2.739209-2.671279-2.739209h-45.883042c-1.475305,0-2.671279,1.226383-2.671279,2.739209v62.446042c0,1.512822,1.195974,2.73921,2.671279,2.73921h45.883042Z" transform="matrix(.756212 0.654327-.654327 0.756212 128.441147-193.832987)" fill="#d1fffd" stroke-width="0"/></g><path d="M506.7358,185.52523c-1.728011,0-3.12884-1.400897-3.12884-3.128993v-71.332014c0-1.728096,1.400829-3.128993,3.12884-3.128993h53.74232c1.728011,0,3.12884,1.400897,3.12884,3.128993v71.332014c0,1.728096-1.400829,3.128993-3.12884,3.128993h-53.74232Zm49.812678-4.832772c1.475306,0,2.671279-1.226383,2.671279-2.73921v-62.446042c0-1.512821-1.195973-2.739209-2.671279-2.739209h-45.883042c-1.475305,0-2.671279,1.226383-2.671279,2.739209v62.446042c0,1.512822,1.195974,2.73921,2.671279,2.73921h45.883042Z" transform="matrix(-.714592 0.699542-.699542-.714592 1288.840485-102.826219)" opacity="0.25" fill="#d1fffd" stroke-width="0"/><path d="M506.7358,185.52523c-1.728011,0-3.12884-1.400897-3.12884-3.128993v-71.332014c0-1.728096,1.400829-3.128993,3.12884-3.128993h53.74232c1.728011,0,3.12884,1.400897,3.12884,3.128993v71.332014c0,1.728096-1.400829,3.128993-3.12884,3.128993h-53.74232Zm49.812678-4.832772c1.475306,0,2.671279-1.226383,2.671279-2.73921v-62.446042c0-1.512821-1.195973-2.739209-2.671279-2.739209h-45.883042c-1.475305,0-2.671279,1.226383-2.671279,2.739209v62.446042c0,1.512822,1.195974,2.73921,2.671279,2.73921h45.883042Z" transform="matrix(.184524 0.982828-.982828 0.184524 666.709633-514.87566)" opacity="0.25" fill="#d1fffd" stroke-width="0"/>
<style><![CDATA[
@font-face {font-family: 'Verdana, sans-serif';font-style: normal;font-weight: 700;}
]]></style>
</svg>
